<?xml version="1.0" encoding="UTF-8" standalone="no"?>
<!DOCTYPE svg PUBLIC "-//W3C//DTD SVG 1.1//EN" "http://www.w3.org/Graphics/SVG/1.1/DTD/svg11.dtd">
<svg version="1.1" xmlns="http://www.w3.org/2000/svg" xmlns:xlink="http://www.w3.org/1999/xlink" preserveAspectRatio="xMidYMid meet" viewBox="0 0 640 640" width="2100" height="2100"><defs><path d="M204.88 152.13C268.45 252.15 301.59 304.47 304.3 309.11C307.02 313.75 307.02 321.12 304.3 331.22L204.88 486.43L181.63 486.43C247.52 381.78 281.63 327.52 283.95 323.64C286.28 319.77 285.7 316.09 282.21 312.6L182.79 152.13L204.88 152.13Z" id="a2pUp1vhJM"></path><path d="M436.78 152.13C373.22 252.15 340.08 304.47 337.37 309.11C334.65 313.75 334.65 321.12 337.37 331.22L436.78 486.43L460.04 486.43C394.15 381.78 360.04 327.52 357.72 323.64C355.39 319.77 355.97 316.09 359.46 312.6L458.88 152.13L436.78 152.13Z" id="k6pX7wWB29"></path><path d="M353.61 232.35L387.23 178.58L320 178.58L252.77 178.58L286.38 232.35L320 286.11L353.61 232.35Z" id="b18DgVLAUH"></path><path d="M353.61 407.24L387.23 461L320 461L252.77 461L286.38 407.24L320 353.48L353.61 407.24Z" id="a92LgTMheN"></path><path d="M478.35 486.43C483.87 486.43 488.35 490.91 488.35 496.43C488.35 499.61 488.35 499.15 488.35 502.33C488.35 507.85 483.87 512.33 478.35 512.33C413.01 512.33 226.99 512.33 161.65 512.33C156.13 512.33 151.65 507.85 151.65 502.33C151.65 499.15 151.65 499.61 151.65 496.43C151.65 490.91 156.13 486.43 161.65 486.43C226.99 486.43 413.01 486.43 478.35 486.43Z" id="bhmFesJa"></path><path d="M478.35 127.67C483.87 127.67 488.35 132.15 488.35 137.67C488.35 140.85 488.35 140.39 488.35 143.57C488.35 149.09 483.87 153.57 478.35 153.57C413.01 153.57 226.99 153.57 161.65 153.57C156.13 153.57 151.65 149.09 151.65 143.57C151.65 140.39 151.65 140.85 151.65 137.67C151.65 132.15 156.13 127.67 161.65 127.67C226.99 127.67 413.01 127.67 478.35 127.67Z" id="bl2Tqjp8c"></path></defs><g><g><g><g><use xlink:href="#a2pUp1vhJM" opacity="1" fill="#e8594f" fill-opacity="1"></use><g><use xlink:href="#a2pUp1vhJM" opacity="1" fill-opacity="0" stroke="#000000" stroke-width="1" stroke-opacity="0"></use></g></g><g><use xlink:href="#k6pX7wWB29" opacity="1" fill="#e8594f" fill-opacity="1"></use><g><use xlink:href="#k6pX7wWB29" opacity="1" fill-opacity="0" stroke="#000000" stroke-width="1" stroke-opacity="0"></use></g></g><g><use xlink:href="#b18DgVLAUH" opacity="1" fill="#e8594f" fill-opacity="1"></use><g><use xlink:href="#b18DgVLAUH" opacity="1" fill-opacity="0" stroke="#000000" stroke-width="1" stroke-opacity="0"></use></g><g></g></g><g><use xlink:href="#a92LgTMheN" opacity="1" fill="#e8594f" fill-opacity="1"></use><g><use xlink:href="#a92LgTMheN" opacity="1" fill-opacity="0" stroke="#000000" stroke-width="1" stroke-opacity="0"></use></g><g></g></g><g><use xlink:href="#bhmFesJa" opacity="1" fill="#e8594f" fill-opacity="1"></use><g><use xlink:href="#bhmFesJa" opacity="1" fill-opacity="0" stroke="#000000" stroke-width="1" stroke-opacity="0"></use></g></g><g><use xlink:href="#bl2Tqjp8c" opacity="1" fill="#e8594f" fill-opacity="1"></use></g></g></g></g></svg>